<svg xmlns="http://www.w3.org/2000/svg" width="130.501" height="30.548" viewBox="0 0 130.501 30.548">
  <g id="Group_1006" data-name="Group 1006" transform="translate(-2083.46 -1348.533)">
    <path id="Path_1785" data-name="Path 1785" d="M314.551,12.775A3.773,3.773,0,0,1,310.878,8.9a3.673,3.673,0,1,1,7.339,0A3.773,3.773,0,0,1,314.551,12.775Z" transform="translate(1895.24 1344)" fill="none" stroke="#088a06" stroke-miterlimit="10" stroke-width="1"/>
    <path id="Path_1786" data-name="Path 1786" d="M314.25,11.989V7.618h1.777a2.9,2.9,0,0,1,.966.118.954.954,0,0,1,.486.421,1.292,1.292,0,0,1,.178.693,1.185,1.185,0,0,1-.278.817,1.285,1.285,0,0,1-.823.4,1.913,1.913,0,0,1,.45.373,5.009,5.009,0,0,1,.48.711l.509.859h-1.007l-.592-.954c-.219-.344-.367-.557-.444-.652a.628.628,0,0,0-.255-.178,1.226,1.226,0,0,0-.421-.053H315.1v1.813Zm.841-2.535h.622a3.057,3.057,0,0,0,.752-.053.444.444,0,0,0,.237-.19.64.64,0,0,0,0-.687.527.527,0,0,0-.32-.172,5.586,5.586,0,0,0-.592,0h-.658Z" transform="translate(1893.864 1342.967)" fill="#088a06"/>
    <path id="Path_1787" data-name="Path 1787" d="M146.81,53.293V49.36H162.8v3.933Z" transform="translate(1962.282 1325.788)" fill="#49484d"/>
    <path id="Path_1788" data-name="Path 1788" d="M239.79,53.293V49.36h15.993v3.933Z" transform="translate(1924.278 1325.788)" fill="#49484d"/>
    <path id="Path_1789" data-name="Path 1789" d="M199.633,25.8c1.185-2.239,2.316-4.295,3.388-6.374a1.125,1.125,0,0,1,1.185-.746c1.351.053,2.7,0,4.194,0-.2.361-.338.592-.486.865-1.824,3.039-3.643,6.089-5.491,9.116a.942.942,0,0,0,0,1.155c1.919,3.193,3.815,6.4,5.722,9.6l.7,1.185h-4.585a.983.983,0,0,1-1.072-.586c-1.031-2.026-2.1-4.028-3.157-6.036-.118-.219-.243-.432-.415-.735a5.141,5.141,0,0,0-.355.509c-1.185,2.085-2.369,4.146-3.507,6.267a1.013,1.013,0,0,1-1.031.592c-1.4-.036-2.8,0-4.342,0,.2-.349.314-.592.45-.812,1.949-3.258,3.892-6.516,5.864-9.774a1.019,1.019,0,0,0,0-1.226c-1.777-2.962-3.554-5.977-5.331-8.968-.2-.338-.4-.681-.663-1.149h4.887c.184,0,.415.3.527.509,1.013,1.89,2,3.8,2.962,5.7C199.259,25.162,199.39,25.381,199.633,25.8Z" transform="translate(1944.472 1338.299)" fill="#49484d"/>
    <path id="Path_1790" data-name="Path 1790" d="M295.45,18.75H299.7V40.62H285.09V36.8h9.43c.717,0,.954-.178.948-.977-.036-5.331,0-10.662,0-16.029Z" transform="translate(1905.751 1338.266)" fill="#49484d"/>
    <path id="Path_1791" data-name="Path 1791" d="M118.038,36.827v3.8H103.46V18.82h4.247V35.974c0,.669.166.877.812.865,2.879-.03,5.764,0,8.642,0Z" transform="translate(1980 1338.238)" fill="#49484d"/>
    <path id="Path_1792" data-name="Path 1792" d="M162.923,34.09v3.827H146.93V34.09Z" transform="translate(1962.233 1332.069)" fill="#088a06"/>
    <path id="Path_1793" data-name="Path 1793" d="M162.779,18.81v3.827H146.94V18.81Z" transform="translate(1962.229 1338.354)" fill="#49484d"/>
    <path id="Path_1794" data-name="Path 1794" d="M255.765,18.81v3.827H239.92V18.81Z" transform="translate(1924.226 1338.354)" fill="#49484d"/>
    <path id="Path_1795" data-name="Path 1795" d="M255.771,34.09v3.827H239.92V34.09Z" transform="translate(1924.226 1332.069)" fill="#088a06"/>
  </g>
</svg>
